<svg xmlns="http://www.w3.org/2000/svg" viewBox="0 0 800 800">
  <defs><linearGradient id="bg" x1="0" y1="0" x2="1" y2="1"><stop stop-color="#182c3c"/><stop offset=".5" stop-color="#326072"/><stop offset="1" stop-color="#a09a76"/></linearGradient><linearGradient id="line"><stop stop-color="#93e7e3" stop-opacity="0"/><stop offset=".5" stop-color="#d7fa70"/><stop offset="1" stop-color="#93e7e3" stop-opacity="0"/></linearGradient></defs>
  <rect width="800" height="800" fill="url(#bg)"/><path d="M0 600C140 410 210 725 355 525s222-75 445-320" fill="none" stroke="#c7f4c4" stroke-width="84" opacity=".08"/><path d="M-20 570c160-210 215 130 352-73s235-90 492-335" fill="none" stroke="url(#line)" stroke-width="8"/><path d="M-30 636c180-210 215 92 370-125s250-78 492-312M-10 703c161-163 239 17 373-149s250-97 454-287" fill="none" stroke="#9fe7e7" stroke-width="2" opacity=".4"/><circle cx="581" cy="222" r="85" fill="#e5d991" opacity=".7"/><circle cx="581" cy="222" r="116" fill="none" stroke="#e5d991" stroke-width="2" opacity=".32"/>
</svg>